<svg version="1.1" xmlns="http://www.w3.org/2000/svg" x="0px" y="0px" width="12px" height="9px" viewBox="0 0 12 9" enable-background="new 0 0 12 9" xml:space="preserve"><path fill="#ACACAC" d="M6.076 9c-0.123 0-0.24-0.023-0.352-0.076C5.432 8.801 5.25 8.531 5.25 8.232V6H1.5C0.674 6 0 5.326 0 4.5s0.674-1.488 1.5-1.488h3.75V0.779c0-0.299 0.182-0.58 0.475-0.703C5.836 0.023 5.953 0 6.076 0c0.188 0 0.375 0.064 0.527 0.182l5.098 3.727C11.889 4.049 12 4.271 12 4.5l0 0c0 0.229-0.111 0.451-0.299 0.592L6.604 8.818C6.451 8.936 6.264 9 6.076 9z"/></svg>