<?xml version="1.0" encoding="utf-8"?>
<!-- Generator: Adobe Illustrator 19.0.0, SVG Export Plug-In . SVG Version: 6.00 Build 0)  -->
<!DOCTYPE svg PUBLIC "-//W3C//DTD SVG 1.1//EN" "http://www.w3.org/Graphics/SVG/1.1/DTD/svg11.dtd">
<svg version="1.1" id="Layer_1" xmlns="http://www.w3.org/2000/svg" xmlns:xlink="http://www.w3.org/1999/xlink" x="0px" y="0px"
	 viewBox="0 0 13 13" style="enable-background:new 0 0 13 13;" xml:space="preserve">
<style type="text/css">
	.st0{fill:#F58632;}
</style>
<g>
	<g id="XMLID_9_">
		<path id="XMLID_35_" class="st0" d="M12.1,3.7V2.9c0-0.4-0.4-0.8-0.8-0.8h-0.8V1.3c0-0.4-0.4-0.8-0.8-0.8c-0.4,0-0.8,0.4-0.8,0.8
			v0.8H4.1V1.3c0-0.4-0.4-0.8-0.8-0.8S2.5,0.9,2.5,1.3v0.8H1.7c-0.4,0-0.8,0.4-0.8,0.8v0.8H12.1z"/>
	</g>
	<g>
		<path id="XMLID_76_" class="st0" d="M0.9,4.5v7.2c0,0.4,0.4,0.8,0.8,0.8h9.6c0.4,0,0.8-0.4,0.8-0.8V4.5H0.9z M4.1,10.9H2.5V9.3
			h1.6V10.9z M4.1,7.7H2.5V6.1h1.6V7.7z M7.3,10.9H5.7V9.3h1.6V10.9z M7.3,7.7H5.7V6.1h1.6V7.7z M10.5,10.9H8.9V9.3h1.6V10.9z
			 M10.5,7.7H8.9V6.1h1.6V7.7z"/>
	</g>
</g>
</svg>
