<svg version="1.1" xmlns="http://www.w3.org/2000/svg" x="0px" y="0px" width="21px" height="21px" viewBox="0 0 21 21" enable-background="new 0 0 21 21" xml:space="preserve"><path fill="#44926B" d="M6.002 20.844H5.911c-0.327 0-0.644-0.031-0.961-0.071 -0.461-0.051-0.92-0.174-1.401-0.359 -0.685-0.276-1.299-0.673-1.799-1.145l-1.033-1.032c-0.439-0.44-0.695-1.004-0.715-1.606 -0.021-0.633 0.205-1.216 0.644-1.655l2.904-2.903c0.409-0.408 0.959-0.633 1.563-0.633 0.634 0 1.258 0.255 1.698 0.694l1.575 1.585c0.87-0.481 1.994-1.146 3.14-2.289 1.153-1.155 1.807-2.282 2.29-3.139l-1.588-1.574c-0.899-0.91-0.93-2.393-0.06-3.261l2.902-2.904c0.409-0.418 0.97-0.644 1.564-0.644h0.092c0.604 0.021 1.168 0.275 1.605 0.706l1.021 1.033c0.482 0.51 0.882 1.123 1.158 1.798 0.183 0.492 0.304 0.951 0.367 1.421 0.039 0.317 0.058 0.635 0.058 0.952 0.031 3.18-1.736 6.746-4.999 10.029C12.688 19.066 9.161 20.844 6.002 20.844L6.002 20.844zM4.479 12.992l-2.903 2.904c-0.183 0.183-0.275 0.419-0.266 0.685 0.009 0.267 0.123 0.521 0.327 0.727L2.67 18.33c0.369 0.358 0.839 0.654 1.359 0.868 0.369 0.145 0.726 0.234 1.094 0.276 0.266 0.04 0.532 0.061 0.797 0.061h0.082c2.77 0 6.053-1.686 9.018-4.62 2.955-2.986 4.641-6.297 4.608-9.088 0-0.256-0.019-0.531-0.061-0.797 -0.039-0.369-0.132-0.727-0.285-1.105 -0.205-0.511-0.502-0.981-0.868-1.371l-1.012-1.011c-0.195-0.205-0.451-0.318-0.728-0.327l0 0c-0.287 0-0.511 0.092-0.675 0.256l-2.915 2.911c-0.345 0.348-0.315 1.014 0.072 1.401l2.258 2.26 -0.327 0.644c-0.541 0.971-1.256 2.281-2.637 3.67 -1.379 1.371-2.689 2.095-3.639 2.617l-0.664 0.357 -2.27-2.271c-0.195-0.193-0.47-0.315-0.767-0.315C4.857 12.748 4.632 12.839 4.479 12.992z"/></svg>