<svg version="1.1" xmlns="http://www.w3.org/2000/svg" x="0px" y="0px" width="13.001px" height="13px" viewBox="0 0 13.001 13" enable-background="new 0 0 13.001 13" xml:space="preserve"><path fill="#44926B" d="M3.727 13H3.67c-0.203 0-0.4-0.019-0.597-0.044 -0.286-0.032-0.571-0.108-0.87-0.223 -0.425-0.172-0.806-0.419-1.117-0.711l-0.641-0.641c-0.273-0.273-0.432-0.623-0.444-0.997 -0.013-0.394 0.127-0.755 0.4-1.028l1.803-1.803C2.458 7.3 2.8 7.16 3.175 7.16c0.394 0 0.781 0.159 1.054 0.432l0.978 0.983c0.54-0.298 1.238-0.711 1.949-1.421 0.717-0.717 1.123-1.416 1.422-1.949L7.593 4.228C7.034 3.663 7.015 2.742 7.555 2.203L9.358 0.4C9.612 0.14 9.96 0 10.329 0h0.057c0.375 0.013 0.725 0.171 0.997 0.438l0.635 0.641c0.298 0.317 0.546 0.698 0.718 1.117 0.113 0.305 0.189 0.59 0.229 0.882C12.989 3.275 13 3.472 13 3.669c0.02 1.974-1.078 4.189-3.104 6.227C7.878 11.896 5.688 13 3.727 13L3.727 13zM2.781 8.125L0.979 9.928c-0.114 0.114-0.171 0.261-0.165 0.425 0.006 0.166 0.076 0.324 0.203 0.451l0.641 0.635c0.229 0.223 0.521 0.406 0.844 0.539 0.229 0.09 0.451 0.146 0.679 0.172 0.165 0.025 0.33 0.038 0.495 0.038h0.051c1.72 0 3.758-1.048 5.599-2.869 1.835-1.854 2.882-3.91 2.862-5.643 0-0.159-0.012-0.33-0.037-0.495 -0.025-0.229-0.083-0.451-0.178-0.686 -0.127-0.317-0.312-0.609-0.54-0.851l-0.628-0.628c-0.121-0.127-0.279-0.197-0.451-0.203l0 0c-0.178 0-0.317 0.057-0.419 0.159L8.125 2.78C7.911 2.996 7.929 3.409 8.17 3.65l1.402 1.403 -0.203 0.4c-0.336 0.603-0.78 1.416-1.637 2.279 -0.857 0.851-1.67 1.301-2.26 1.625L5.06 9.579l-1.409-1.41C3.53 8.049 3.359 7.973 3.175 7.973 3.016 7.973 2.876 8.03 2.781 8.125z"/></svg>