<svg version="1.1" xmlns="http://www.w3.org/2000/svg" x="0" y="0" width="7.3" height="13" viewBox="0 0 7.3 13" enable-background="new 0 0 7.312 13" xml:space="preserve"><path fill="#43926a" d="M7.3 3.7c0 1.9-1.4 3.4-3.2 3.6v5.3C4.1 12.8 3.9 13 3.7 13S3.3 12.8 3.3 12.6V7.3C1.4 7.1 0 5.5 0 3.7 0 1.6 1.6 0 3.7 0 5.7 0 7.3 1.6 7.3 3.7zM6.5 3.7c0-1.6-1.3-2.8-2.8-2.8S0.8 2.1 0.8 3.7 2.1 6.5 3.7 6.5 6.5 5.2 6.5 3.7zM4.9 2.4c0 0.7-0.5 1.2-1.2 1.2 -0.7 0-1.2-0.5-1.2-1.2s0.5-1.2 1.2-1.2C4.3 1.2 4.9 1.8 4.9 2.4zM4.5 2.4c0-0.5-0.4-0.8-0.8-0.8S2.8 2 2.8 2.4 3.2 3.3 3.7 3.3 4.5 2.9 4.5 2.4z"/></svg>